<?xml version="1.0" encoding="UTF-8"?>
<svg id="Layer_1" data-name="Layer 1" xmlns="http://www.w3.org/2000/svg" viewBox="0 0 177.18 32.09">
  <defs>
    <style>
      .cls-1 { fill: #f58863; }
      .cls-2 { fill: #424242; }
      .cls-3 { fill: #f8c126; }
    </style>
  </defs>
  <g>
    <path class="cls-2" d="M46.32,20.75c.38,0,.79.25.92.71.21,1.75,1.67,3.63,4.42,3.63,2.59,0,4.22-1.88,4.22-3.84,0-2.51-1.79-3.71-4.26-4.55-3.09-1-6.01-2.13-6.01-6.09,0-3.3,2.5-5.76,6.09-5.76s6.13,2.21,6.13,5.22c0,.54-.42.96-.96.96-.33,0-.79-.21-.92-.79-.17-1.79-1.63-3.55-4.26-3.55s-4.09,1.84-4.09,3.92c0,2.71,2.25,3.67,5.09,4.55,2.67.79,5.26,2.38,5.26,6.05,0,3.05-2.67,5.76-6.3,5.76s-6.3-2.51-6.3-5.26c0-.54.42-.96.96-.96Z"/>
    <path class="cls-2" d="M60.21,15.91c0-6.18,4.8-11.06,10.93-11.06,3.46,0,6.34,1.5,8.26,3.76.17.21.33.54.33.79,0,.54-.46.96-1.04.96-.38,0-.59-.21-.88-.46-1.59-1.88-3.88-3.13-6.68-3.13-4.92,0-8.85,4.01-8.85,9.14s3.92,9.14,8.85,9.14c2.75,0,5.09-1.25,6.68-3.17.25-.25.5-.46.88-.46.58,0,1.04.42,1.04,1,0,.21-.17.54-.33.75-1.92,2.25-4.8,3.8-8.26,3.8-6.14,0-10.93-4.88-10.93-11.06Z"/>
    <path class="cls-2" d="M82.03,15.91c0-6.18,4.8-11.06,10.93-11.06s10.89,4.88,10.89,11.06-4.76,11.06-10.89,11.06-10.93-4.88-10.93-11.06ZM101.77,15.91c0-5.09-3.88-9.14-8.81-9.14s-8.85,4.05-8.85,9.14,3.92,9.14,8.85,9.14,8.81-4.09,8.81-9.14Z"/>
    <path class="cls-2" d="M106.1,15.91c0-6.18,4.8-11.06,10.94-11.06s10.89,4.88,10.89,11.06-4.76,11.06-10.89,11.06-10.94-4.88-10.93-11.06ZM125.84,15.91c0-5.09-3.88-9.14-8.8-9.14s-8.85,4.05-8.85,9.14,3.92,9.14,8.85,9.14,8.8-4.09,8.8-9.14Z"/>
    <path class="cls-2" d="M130.19,5.81c0-.54.42-.96.96-.96h2.92V1.04c0-.63.46-1.04,1.04-1.04s1.04.42,1.04,1.04v3.81h6.09c.5,0,.96.42.96.96,0,.5-.46.96-.96.96h-6.09v11.88c0,4.05,2.34,6.39,6.09,6.39.5,0,.96.42.96.96s-.46,1-.96,1c-4.92,0-8.18-3.21-8.18-8.35V6.77h-2.92c-.54,0-.96-.46-.96-.96Z"/>
    <path class="cls-2" d="M145.46,15.91c0-6.18,4.8-11.06,10.93-11.06,2.84,0,5.38,1.04,7.26,2.75.21.21.38.5.38.83,0,.25-.08.5-.38.84l-8.47,10.1c-.21.25-.46.38-.75.38-.59,0-1-.42-1-.96,0-.21.08-.46.25-.67l8.01-9.43c-1.5-1.33-3.46-1.92-5.3-1.92-4.92,0-8.85,4.01-8.85,9.14s3.92,9.14,8.85,9.14c2.8,0,5.09-1.25,6.68-3.17.29-.25.54-.46.88-.46.58,0,1.04.42,1.04,1,0,.21-.17.54-.33.75-1.92,2.25-4.8,3.8-8.26,3.8-6.13,0-10.93-4.88-10.93-11.06Z"/>
    <path class="cls-2" d="M168.42,13.07c0-4.8,2.88-8.22,7.8-8.22.54,0,.96.42.96.96,0,.5-.46.96-.96.96-3.42,0-5.72,2.25-5.72,6.3v12.69c0,.59-.46,1.09-1.04,1.09-.63,0-1.04-.5-1.04-1.09v-12.69Z"/>
  </g>
  <g>
    <circle class="cls-3" cx="12.5" cy="2.65" r="2.65"/>
    <circle class="cls-3" cx="12.5" cy="11.58" r="2.65"/>
    <circle class="cls-3" cx="12.5" cy="20.51" r="2.65"/>
    <circle class="cls-3" cx="12.5" cy="29.43" r="2.65"/>
    <circle class="cls-3" cx="22.3" cy="20.51" r="2.65"/>
    <circle class="cls-3" cx="22.3" cy="29.43" r="2.65"/>
    <path class="cls-1" d="M32.1,14.23c-1.46,0-2.65-1.19-2.65-2.65,0-.87.43-1.69,1.16-2.2.75-.51,1.2-1.36,1.2-2.27,0-.91-.45-1.76-1.2-2.27-.73-.5-1.16-1.32-1.16-2.19C29.44,1.19,30.63,0,32.1,0s2.65,1.19,2.65,2.65c0,.87-.43,1.69-1.16,2.19-.75.51-1.2,1.36-1.2,2.27,0,.91.45,1.76,1.2,2.27.73.5,1.16,1.32,1.16,2.2,0,1.46-1.19,2.65-2.65,2.65Z"/>
    <path class="cls-1" d="M32.1,5.31c-.73,0-1.41-.29-1.92-.82-.78-.81-1.86-1.6-2.98-1.6s-2.2.79-2.98,1.6c-.51.53-1.19.82-1.92.82-1.46,0-2.65-1.19-2.65-2.65S20.83,0,22.3,0C23.02,0,23.71.29,24.21.82c.78.81,1.86,1.56,2.98,1.56s2.2-.75,2.98-1.56C30.69.29,31.37,0,32.1,0,33.56,0,34.75,1.19,34.75,2.65s-1.19,2.65-2.65,2.65Z"/>
    <path class="cls-1" d="M22.29,14.23c-1.46,0-2.65-1.19-2.65-2.65,0-1.37,1.06-2.53,2.42-2.64,1.82-.16,3.58-.79,4.87-1.94s2.21-2.95,2.55-4.82C29.71.94,30.83,0,32.09,0c1.46,0,2.65,1.19,2.65,2.65,0,1.37-1.06,2.53-2.42,2.64-1.92.16-3.66.98-4.98,2.24-1.24,1.18-2.12,2.74-2.44,4.52-.22,1.24-1.35,2.18-2.61,2.18Z"/>
    <path class="cls-1" d="M12.5,23.03c-1.46,0-2.65-1.19-2.65-2.65,0-1.37,1.06-2.53,2.42-2.64,1.82-.16,3.58-.79,4.87-1.94s2.21-2.95,2.55-4.82c.22-1.24,1.35-2.18,2.61-2.18,1.46,0,2.65,1.19,2.65,2.65,0,1.37-1.06,2.53-2.42,2.64-1.92.16-3.66.98-4.98,2.24-1.24,1.18-2.12,2.74-2.44,4.52-.22,1.24-1.35,2.18-2.61,2.18Z"/>
    <circle class="cls-3" cx="32.09" cy="20.51" r="2.65"/>
    <circle class="cls-3" cx="32.09" cy="29.43" r="2.65"/>
    <circle class="cls-3" cx="2.7" cy="2.65" r="2.65"/>
    <circle class="cls-3" cx="2.7" cy="11.58" r="2.65"/>
    <circle class="cls-3" cx="2.7" cy="20.51" r="2.65"/>
    <circle class="cls-3" cx="2.7" cy="29.43" r="2.65"/>
    <path class="cls-1" d="M2.65,32.09c-1.46,0-2.65-1.19-2.65-2.65,0-1.37,1.06-2.53,2.42-2.64,1.82-.16,3.58-.79,4.87-1.94s2.21-2.95,2.55-4.82c.22-1.24,1.35-2.18,2.61-2.18,1.46,0,2.65,1.19,2.65,2.65,0,1.37-1.06,2.53-2.42,2.64-1.92.16-3.66.98-4.98,2.24-1.24,1.18-2.12,2.74-2.44,4.52-.22,1.24-1.35,2.18-2.61,2.18Z"/>
  </g>
</svg>
